<svg xmlns="http://www.w3.org/2000/svg" viewBox="0 0 645.99 645.99"><defs><style>.cls-1{isolation:isolate;}.cls-2{fill:#ffd077;}.cls-3{mix-blend-mode:multiply;}.cls-12,.cls-4{fill:#bababa;}.cls-5{font-size:63.82px;}.cls-11,.cls-5,.cls-8{font-family:UnicaOne-Regular, Unica One;}.cls-6{letter-spacing:-0.04em;}.cls-7{letter-spacing:0em;}.cls-8{font-size:40.01px;}.cls-9{letter-spacing:-0.02em;}.cls-10{letter-spacing:-0.04em;}.cls-11{font-size:91.76px;}.cls-12{opacity:0.5;}.cls-13{fill:#fff;}</style></defs><title>404Recurso 1</title><g class="cls-1"><g id="Capa_2" data-name="Capa 2"><g id="Capa_1-2" data-name="Capa 1"><rect class="cls-2" width="645.99" height="645.99" rx="54.6"/><g class="cls-3"><path class="cls-4" d="M108,347.25s18-31.21,61.73-42.05,64.11-16.36,78.86-39.63c62.14-19,97.53-31.94,97.53-31.94l64.23-14.75c10.76-6.64,61.68,17.41,71,21,8,3.51,10.19,25.85,5.24,34s-48.85,35.38-115.66,52.41-72.27,29.6-133.55,20.78C216.14,344,205,335.57,191.57,330.32s-39.16,15.23-39.16,15.23S128.64,354,108,347.25Z"/><text class="cls-5" transform="translate(61.92 497.12)">...ALGO NO ES<tspan class="cls-6" x="326.22" y="0">T</tspan><tspan class="cls-7" x="348.55" y="0">Á BIEN.</tspan></text><text class="cls-8" transform="translate(157.22 571.46)">LA <tspan class="cls-9" x="43.29" y="0">P</tspan><tspan x="61.3" y="0">ÁGINA QUE ES</tspan><tspan class="cls-10" x="269.49" y="0">T</tspan><tspan x="283.49" y="0">ÁS</tspan><tspan x="0" y="36.2">BUSCANDO NO EXISTE.</tspan></text><text class="cls-11" transform="translate(91.83 103.43)">OOPS...</text><path class="cls-12" d="M264.62,353.05c-14.14,1.88-26.76-1.93-39-8.81-12.63-7.1-26.63-10.3-41.1-8.38-8.92,1.19-17.61,4.18-26.36,6.51a3.63,3.63,0,0,0-1.95,2.39c-1.64,7.24-4.4,13.86-11.36,17.42-8,4.1-16.37,7.13-25.71,6.14-19-2-28.58-13.57-32.85-32-3.21-13.84-3.3-28.05-1.62-42.05,1.29-10.75,6.55-19.82,17.38-23.93a127.26,127.26,0,0,1,20.47-6c7.1-1.39,13.43,1.25,18.44,6.49a3.58,3.58,0,0,0,4.64,1c12.67-5.07,25.41-10,38.1-15,6.33-2.5,10-7.37,11.74-13.76,3.83-13.75,9-27,16.76-39a72.71,72.71,0,0,1,11.24-13.86c11-10.12,24.49-16.25,38.39-21.26Q290.28,158.8,319,149.2c19-6.37,38-13,57.26-18.35a420.28,420.28,0,0,1,48.27-10.31,86.84,86.84,0,0,1,28.73.11c11.47,2.14,21.34,8.8,28.55,18.26a143.19,143.19,0,0,1,23.42,46.32c6.27,21,5.76,42.28.51,63.36-3.44,13.77-8.34,27.1-20.78,35.67a109.47,109.47,0,0,1-17.52,10.23c-22.57,10-45,20.26-68.08,29-30.21,11.5-61.54,19.63-93.15,26.29-13.56,2.86-27.69,3.06-41.56,4.46Z"/><path d="M53,383.41c2.48-5.82,4.66-11.8,7.54-17.43,4.11-8,12.1-11.18,20-14.28-2.29,1.56-4.55,3.18-6.88,4.68-9.8,6.27-13.41,16.05-15.23,26.81-1,6,2.63,9.61,7.15,12.46,9.49,6,20.1,7.49,31.11,8.34,19.3,1.5,36.84-3.45,54-11.69a103.27,103.27,0,0,1,45.22-10.47A32.75,32.75,0,0,1,215,387.7c13.55,9.35,27.77,17.5,43.92,21.4,15.21,3.67,30.54,5,44.68-3.58,5.62-3.43,10.43-8.21,15.59-12.4,12.81-10.39,24.47-22.26,39-30.51a149.83,149.83,0,0,1,52.72-17.75c15.66-2.32,31.55-4,46.8-7.95a129.68,129.68,0,0,0,53-27.48,26.1,26.1,0,0,0,9.53-19.75A14.81,14.81,0,0,0,515.47,278a66.58,66.58,0,0,1-5-5c14.9,6.66,16.06,20.53,9.8,32.22-4.72,8.83-12.43,15.19-21.1,20.26-17.57,10.3-36,18.28-56.3,21.42-11.75,1.81-23.58,3.14-35.35,4.84-27.63,4-51.12,16.32-71.45,35.24-7.41,6.89-15.22,13.36-23.07,19.75a49.42,49.42,0,0,1-23.91,10.63,5,5,0,0,0-1.31.66h-15.4c-2.51-.36-5-.66-7.53-1.1C245.72,413.59,228.78,405,213,394.14a32.22,32.22,0,0,0-21.69-5.86c-13.63,1.11-27,3.86-39.07,10.22-22.29,11.73-45.74,14.4-70.09,10.21-12.19-2.1-23.37-6.78-29.15-19.14Z"/><path d="M264.62,353.05c-14.14,1.88-26.76-1.93-39-8.81-12.63-7.1-26.63-10.3-41.1-8.38-8.92,1.19-17.61,4.18-26.36,6.51a3.63,3.63,0,0,0-1.95,2.39c-1.64,7.24-4.4,13.86-11.36,17.42-8,4.1-16.37,7.13-25.71,6.14-19-2-28.58-13.57-32.85-32-3.21-13.84-3.3-28.05-1.62-42.05,1.29-10.75,6.55-19.82,17.38-23.93a127.26,127.26,0,0,1,20.47-6c7.1-1.39,13.43,1.25,18.44,6.49a3.58,3.58,0,0,0,4.64,1c12.67-5.07,25.41-10,38.1-15,6.33-2.5,10-7.37,11.74-13.76,3.83-13.75,9-27,16.76-39a72.71,72.71,0,0,1,11.24-13.86c11-10.12,24.49-16.25,38.39-21.26Q290.28,158.8,319,149.2c19-6.37,38-13,57.26-18.35a420.28,420.28,0,0,1,48.27-10.31,86.84,86.84,0,0,1,28.73.11c11.47,2.14,21.34,8.8,28.55,18.26a143.19,143.19,0,0,1,23.42,46.32c6.27,21,5.76,42.28.51,63.36-3.44,13.77-8.34,27.1-20.78,35.67a109.47,109.47,0,0,1-17.52,10.23c-22.57,10-45,20.26-68.08,29-30.21,11.5-61.54,19.63-93.15,26.29-13.56,2.86-27.69,3.06-41.56,4.46ZM157.93,337.39c8.56-2.24,16.71-5.27,25.11-6.32a88.42,88.42,0,0,1,25.89.14c7.75,1.36,15,5.46,22.5,8.37,5.81,2.25,11.48,6,17.44,6.52,17,1.59,34.26,1.47,51-1.87,21-4.2,41.62-10.18,62.37-15.53,36.83-9.49,71-25.68,105.35-41.57,12.6-5.83,23-14.17,27.67-27.79a165.69,165.69,0,0,0,6.27-24.42c3.34-18.92,1.79-37.72-5.29-55.49-4.6-11.57-11.07-22.45-17.3-33.28-4-6.89-10.56-11.37-17.41-15.34-11.19-6.5-23.42-5.2-35.26-4a257.23,257.23,0,0,0-36.09,6.9c-15.95,4.07-31.75,8.78-47.43,13.8-20.91,6.69-41.76,13.62-62.42,21.05a304.57,304.57,0,0,0-34.9,14.84c-12.63,6.43-23.63,14.75-30.2,28.36-4.69,9.71-9.1,19.37-12.13,29.7-2.57,8.8-6.14,16.93-15.59,20.54-6.55,2.51-13.07,5.12-19.69,7.45-7.18,2.54-14.45,4.82-21.84,7.26C155.36,296.09,159.63,315.94,157.93,337.39Zm-16.62-6.29c-.71-5.43-1.17-10.91-2.18-16.29-2-10.85-4.49-21.8-11.51-30.55-8.33-10.38-17.29-12.71-27.87-6.42-7.49,4.46-11.14,11.81-12,20-.7,7-.05,14.29.68,21.37,1.2,11.66,3.84,23,11.28,32.51s23.33,16,35,1.07C139.68,346.5,141.65,339.17,141.31,331.1Zm-24.25-62.28c1.09.58,1.91,1.05,2.75,1.47a36.06,36.06,0,0,1,17.65,18.46,114.73,114.73,0,0,1,9.11,34.31c.91,9,1.58,18.27-2.84,26.74-2,3.92-4.69,7.52-7.21,11.5,5.59-2.25,10.35-5.33,12.16-11.09a72.25,72.25,0,0,0,3.47-16c1.38-18.12-3-35.34-10-51.85C137.36,270.91,127.82,266.06,117.06,268.82Z"/><path d="M114.61,382.42c-.45,2.46-.47,3.93-1,5.19-1.15,2.7-2.81,4.9-6.29,4.37s-4.47-3.15-4.18-5.86A129.55,129.55,0,0,1,105.79,372c.17-.8,1.25-1.4,1.91-2.1.69.67,1.64,1.21,2,2C111.56,375.61,113.23,379.41,114.61,382.42Zm-6.5-7.9-1.44.18a80.51,80.51,0,0,0-1.16,10c0,1.38,1.51,2.76,2.34,4.14.94-1.45,2.79-3,2.66-4.33C110.19,381.12,109,377.84,108.11,374.52Z"/><path d="M223.56,305.72c7.29,0,14.62-.51,21.84.17,5.25.49,10.3,2.77,15.53,3.85a105.19,105.19,0,0,0,14.35,2c17,1.11,33.88-.79,50.36-4.42,20.53-4.52,40.78-10.36,61.06-16C399,288,411.56,285,423.2,280c19-8.18,38.14-16.16,55.73-27.25l.66-.39c6.71-4.22,7.05-6.58,1.77-12.47,6.15,1.32,7,9.27,1.89,12.93a274.74,274.74,0,0,1-37.47,22.32c-21.71,10.82-44.83,17-67.91,23.51-15.23,4.31-30.32,9.31-45.79,12.47-19.8,4.05-39.93,6.83-60.26,5.11A47.3,47.3,0,0,1,256,312.17c-6.87-3.21-14-3.69-21.23-4.24-3.76-.28-7.5-1-11.25-1.53Z"/><path d="M228.08,285.31c7.07-3.25,11.7-8.93,16.17-15,5.63-7.63,14.13-11.66,22.65-14.48,28.09-9.32,56.3-18.34,84.73-26.58,17.26-5,35-8.37,52.52-12.44,6.4-1.49,12.7-.81,18.94,1a35.94,35.94,0,0,1,5.23,1.52,21.72,21.72,0,0,1-4.84,0c-9.66-2.24-18.75.42-27.91,2.93-14.16,3.86-28.42,7.37-42.51,11.44-16.3,4.71-32.51,9.73-48.68,14.85-13.74,4.35-27.44,8.85-41,13.65a45.1,45.1,0,0,0-21.33,15C238.55,281.72,233.46,283.83,228.08,285.31Z"/><path d="M494,233.63c-5.81-35.53-11.84-70.88-37.2-99.32,4.46,4.42,9.34,8.5,13.29,13.34,11.78,14.44,17.52,31.53,21.11,49.58,2.26,11.34,4.28,22.63,3,34.25Z"/><path d="M431.64,142.18c-18,13.67-30.16,31.83-33.37,55.17C393.79,176.49,415.54,146,431.64,142.18Z"/><path d="M213.41,294.37c-13.47,7.66-28.67,8.91-43.37,12l-.3-1.16Z"/><path d="M166.1,319.26c11.57-3.23,22.22-9.74,34.76-9.44C189.18,312.65,178.38,318.61,166.1,319.26Z"/><path d="M133.51,328.49c-.74,4.25-1.12,8.6-2.3,12.72-1.85,6.52-6,10.77-13.1,11.81-7.23,1.06-13.09-1.06-17.62-6.81-6.38-8.11-8.11-17.79-8.81-27.66a65.65,65.65,0,0,1,.6-15.28c2.13-12.72,14.83-17.92,25.11-14,3.63,1.37,6.65,5.92,8.68,9.7C132.1,310.2,132.86,314.73,133.51,328.49Zm-38.6-14.4c.2,9.89,2.64,19.77,9.4,28.19a12.45,12.45,0,0,0,13,4.65c4.94-1,7.3-4.34,8.21-9,2.9-14.65.93-28.42-7.76-40.86-.77-1.11-1.93-2.41-3.12-2.68-9.42-2.13-17.46,1.58-19.26,12.08A73.17,73.17,0,0,0,94.91,314.09Z"/><path class="cls-12" d="M563.34,376.36l20-158.2H581l0,0a2.67,2.67,0,0,0,0-3.54,11.94,11.94,0,0,0-2-2,32.65,32.65,0,0,0-9.27-4.31,125.18,125.18,0,0,0-25-5.06c-6.7-.77-13.45-1.33-20.18-1.6-18.21-.72-36.37-.09-54.38,3a91.3,91.3,0,0,0-19.42,5.12,19,19,0,0,0-7,4.32,2.93,2.93,0,0,0-.75,3.54H441.4l19.35,156.15-.91.43L463.13,393l.24,1.92h.1l.07.4c24.72,18,76.35,12.38,93.35,1.42l3.87.07,1.61-12.74,1.33-7.48Z"/><path class="cls-13" d="M509.58,405.19c-2.72-.15-8.05-.29-13.35-.77a94.64,94.64,0,0,1-19-3.46,29.12,29.12,0,0,1-9.2-4.17c-2.94-2.17-3-4-.11-6.28a26.35,26.35,0,0,1,8.89-4.13,96.06,96.06,0,0,1,16.82-3.31,158.67,158.67,0,0,1,24.17-1A123.2,123.2,0,0,1,545,385.67a36.37,36.37,0,0,1,10.43,4.16,11.3,11.3,0,0,1,2.1,1.74c1.34,1.39,1.27,2.78-.1,4.19a17.36,17.36,0,0,1-6.41,3.81,76.22,76.22,0,0,1-16.64,4.08C527,404.77,519.62,405.11,509.58,405.19Z"/><path class="cls-4" d="M465.77,399.7c6.48,3.89,13.45,5.53,20.55,6.77a158.39,158.39,0,0,0,37.23,1.71,119.13,119.13,0,0,0,20.32-2.89,48.55,48.55,0,0,0,11.75-4.12,22.8,22.8,0,0,1,3-1.49,7,7,0,0,1-.55,1.69,9.92,9.92,0,0,1-4.33,3.43c-5.06,2.52-10.5,3.77-16,4.74A153.85,153.85,0,0,1,505,411.45a128.84,128.84,0,0,1-21.9-2.56c-4.84-1-9.65-2.27-13.92-4.92a15.53,15.53,0,0,1-3-2.71C465.92,400.9,465.92,400.23,465.77,399.7Z"/><path d="M511,367.79c3.66.11,7.33.22,11,.35,1.12,0,1.68.59,1.64,1.56s-.64,1.44-1.78,1.39a195.33,195.33,0,0,0-20.39.07,117.53,117.53,0,0,0-16.85,2.08c-3.91.79-7.81,1.73-11.3,3.81a7,7,0,0,0-.66.45c-1.65,1.36-1.64,2.25.12,3.47.81.56,1.75.91,2.56,1.44a3,3,0,0,1,1.26,1.25,1.37,1.37,0,0,1-1.79,1.69,11.08,11.08,0,0,1-5.43-3.6,4,4,0,0,1,.32-5.53,13,13,0,0,1,5-3.18,60.26,60.26,0,0,1,13.56-3.45A164.64,164.64,0,0,1,511,367.79Z"/><path d="M513.85,390.65c-4.72-.17-8.38-.3-12.05-.45a1.5,1.5,0,0,1-1.5-1.47,1.49,1.49,0,0,1,1.62-1.43c3,.07,6.08.18,9.12.23a151.33,151.33,0,0,0,19.39-.94,84.85,84.85,0,0,0,13.8-2.53,23.24,23.24,0,0,0,7.14-3,3.19,3.19,0,0,0,1.61-2.24,1.32,1.32,0,0,1,1.5-1.11,1.46,1.46,0,0,1,1.36,1.42,4.83,4.83,0,0,1-2,3.8,19.47,19.47,0,0,1-6.68,3.32,77.24,77.24,0,0,1-17.35,3.33C524.13,390.09,518.46,390.35,513.85,390.65Z"/><path d="M472.6,387.47c.88.23,1.91.53,2.95.78,2.06.49,4.13.92,6.18,1.44a2.15,2.15,0,0,1,1.3.78,1.75,1.75,0,0,1,0,1.55,1.86,1.86,0,0,1-1.52.6c-2.4-.45-4.77-1-7.14-1.6a24.42,24.42,0,0,1-2.48-.76,1.35,1.35,0,0,1-.92-1.55A1.48,1.48,0,0,1,472.6,387.47Z"/><path d="M541.55,368.52c-.84-.16-1.94-.32-3-.59a1.43,1.43,0,0,1,.38-2.79,21.76,21.76,0,0,1,3.59.63,1.24,1.24,0,0,1,.82,1.58C543.21,368.12,542.63,368.54,541.55,368.52Z"/><path d="M462.77,375.62A23.65,23.65,0,0,1,469.7,372a88.43,88.43,0,0,1,18.59-4.34,171.36,171.36,0,0,1,32.33-1.4c4.82.24,9.63.83,14.45,1.22a2.16,2.16,0,0,0,1.53-.42,1.58,1.58,0,0,0,.31-1.43,1.81,1.81,0,0,0-1.22-1c-2.81-.37-5.62-.68-8.45-.93a181.09,181.09,0,0,0-25.41-.34,142.56,142.56,0,0,0-21.29,2.56A71.3,71.3,0,0,0,466.68,370a23.08,23.08,0,0,0-6.14,3.63c-.19.17-.4.33-.7.56l.64,5C460.51,378,461.28,376.83,462.77,375.62Z"/><path d="M548.84,367.1a22.9,22.9,0,0,0-2.6-.63,1.45,1.45,0,0,0-1.79,1.09,1.43,1.43,0,0,0,1.12,1.75c3,.87,6,1.64,8.9,2.64a20.68,20.68,0,0,1,7.75,4.32,4.08,4.08,0,0,1,1.55,3l.68-5.35a52.65,52.65,0,0,0-6.09-3.47C555.27,369.11,552,368.16,548.84,367.1Z"/><path d="M461.4,385.6c1.38.77,2.64,1.48,3.9,2.16a8,8,0,0,0,1.23.55,1.48,1.48,0,0,0,2-.78,1.57,1.57,0,0,0-.92-2A47.2,47.2,0,0,1,463,382.9a5.58,5.58,0,0,1-2.39-2.85l.69,5.46Z"/><path d="M486.88,393.56c4,.45,8.05.94,12.1,1.27A174,174,0,0,0,523,395a130.2,130.2,0,0,0,26.34-3.84,44.23,44.23,0,0,0,12.4-5l1.21-.79v0h0l.71-5.58a4.74,4.74,0,0,1-1.4,2.2,20.3,20.3,0,0,1-7,4.08,87.75,87.75,0,0,1-20.4,4.78,172.19,172.19,0,0,1-27.42,1.41,163.76,163.76,0,0,1-20.15-1.67c-1.15-.17-1.86.26-2,1.22S485.79,393.44,486.88,393.56Z"/><path d="M582.53,211.19a24.74,24.74,0,0,0-4.24-2.95,59.4,59.4,0,0,0-14.92-5.2,176.8,176.8,0,0,0-24-3.76c-9-.86-18-1.26-28.73-1.29A253.67,253.67,0,0,0,481,199.77c-4.54.58-9.08,1.16-13.59,1.94a91.63,91.63,0,0,0-16.1,4.19,30,30,0,0,0-8.76,4.65c-2.5,2-3.77,4.52-3.05,7.86.4,1.89.55,3.83.79,5.74.65,5.18,1.28,10.36,1.94,15.54.62,4.91,1.29,9.81,1.91,14.73.86,6.86,1.68,13.73,2.54,20.59.75,6,1.53,11.92,2.29,17.88l2.41,19.24q1.19,9.3,2.37,18.58c.66,5.18,1.29,10.37,1.94,15.55.84,6.66,1.7,13.32,2.54,20,.65,5.14,1.28,10.3,1.93,15.44.76,6.06,1.58,12.11,2.27,18.17A7.52,7.52,0,0,0,465,405a21,21,0,0,0,2.85,2.11c4.55,2.71,9.62,4,14.72,5.1a128.25,128.25,0,0,0,22.1,2.64c13.33.55,26.59-.12,39.63-3.22,4.79-1.14,9.51-2.54,13.64-5.38,2-1.37,3.62-3.05,4-5.55.8-6,1.52-12,2.27-18.07q1.26-10.14,2.53-20.29c.91-7.23,1.85-14.46,2.76-21.69.66-5.21,1.28-10.43,1.94-15.65.37-3,.75-5.89,1.13-8.84l2.82-22.5c.16-1.32.32-2.65.49-4,.85-6.73,1.74-13.45,2.59-20.18.66-5.18,1.28-10.36,1.94-15.54.77-6,1.56-12,2.33-18.05.74-5.79,1.36-11.59,2.25-17.35C585.35,215.58,584.75,213.12,582.53,211.19ZM558,401.37a9.92,9.92,0,0,1-4.33,3.43c-5.06,2.52-10.5,3.77-16,4.74A153.85,153.85,0,0,1,505,411.45a128.84,128.84,0,0,1-21.9-2.56c-4.84-1-9.65-2.27-13.92-4.92a15.53,15.53,0,0,1-3-2.71c-.33-.36-.33-1-.48-1.56,6.48,3.89,13.45,5.53,20.55,6.77a158.39,158.39,0,0,0,37.23,1.71,119.13,119.13,0,0,0,20.32-2.89,48.55,48.55,0,0,0,11.75-4.12,22.8,22.8,0,0,1,3-1.49A7,7,0,0,1,558,401.37ZM468,390.51a26.35,26.35,0,0,1,8.89-4.13,96.06,96.06,0,0,1,16.82-3.31,158.67,158.67,0,0,1,24.17-1A123.2,123.2,0,0,1,545,385.67a36.37,36.37,0,0,1,10.43,4.16,11.3,11.3,0,0,1,2.1,1.74c1.34,1.39,1.27,2.78-.1,4.19a17.36,17.36,0,0,1-6.41,3.81,76.22,76.22,0,0,1-16.64,4.08c-7.36,1.12-14.77,1.46-24.81,1.54-2.72-.15-8.05-.29-13.35-.77a94.64,94.64,0,0,1-19-3.46,29.12,29.12,0,0,1-9.2-4.17C465.14,394.62,465.1,392.76,468,390.51Zm104.12-98.05-2.75,21.76c-3.16,25-6.3,49.83-9.45,74.85a21.28,21.28,0,0,0-8.44-4.88,104.57,104.57,0,0,0-11.26-3.05,120.12,120.12,0,0,0-22.85-2.36c-5.46,0-10.92,0-16.37.26a108.42,108.42,0,0,0-23.87,3.74,33.87,33.87,0,0,0-10.75,4.72c-.6.44-1.16.92-1.9,1.5-3.21-25.46-6.42-50.83-9.63-76.29l-2.64-20.83q-4.35-34.5-8.68-68.77c2,1,3.95,2.06,5.95,2.92a70.15,70.15,0,0,0,15.2,4.4c6.24,1.1,12.5,2.21,18.8,2.8,8,.74,16,1.24,24,1.33,8.61.1,17.23-.19,25.83-.66a174.75,174.75,0,0,0,27.7-3.7,73.7,73.7,0,0,0,15.87-5c1.33-.63,2.6-1.41,4-2.2Q576.45,257.93,572.09,292.46ZM581,218.12a14.44,14.44,0,0,1-5.74,4.08,70.67,70.67,0,0,1-15.1,4.69,187.42,187.42,0,0,1-29.83,3.82c-6.14.32-12.27.51-19.8.82C503,231.1,494,230.77,485,230a149.13,149.13,0,0,1-25.25-4.16c-4.53-1.18-9-2.5-13.07-4.94a16,16,0,0,1-2.94-2.31c-1.49-1.46-1.45-3.05,0-4.57a19,19,0,0,1,7-4.32,91.3,91.3,0,0,1,19.42-5.12c18-3.06,36.17-3.69,54.38-3,6.73.27,13.48.83,20.18,1.6a125.18,125.18,0,0,1,25,5.06,32.65,32.65,0,0,1,9.27,4.31,11.94,11.94,0,0,1,2,2A2.67,2.67,0,0,1,581,218.12Z"/><path class="cls-13" d="M567.32,275l2.94-21.13a23.35,23.35,0,0,1-10.76,3.29l-2.11,20.05C560.67,277.36,564.66,275.83,567.32,275Z"/><path class="cls-13" d="M556.38,286.41,549,358.34c4.28,2.27,7.64-2.15,7.64-2.15l9.47-72.48C563.78,284.54,560.29,286.61,556.38,286.41Z"/></g></g></g></g></svg>