<svg xmlns="http://www.w3.org/2000/svg" viewBox="0 0 532.08 298.66"><defs><style>.cls-1{fill:#dcb467;}.cls-2{fill:#ba9857;}.cls-3{fill:#ffd077;}</style></defs><title>botellaRecurso 30</title><g id="Capa_2" data-name="Capa 2"><g id="Capa_1-2" data-name="Capa 1"><path class="cls-1" d="M211.66,233.65c-14.14,1.89-26.76-1.93-39-8.81-12.64-7.09-26.64-10.3-41.11-8.37-8.92,1.19-17.61,4.17-26.36,6.5a3.62,3.62,0,0,0-1.94,2.39c-1.65,7.24-4.4,13.86-11.37,17.42-8,4.1-16.37,7.13-25.71,6.15-19-2-28.58-13.58-32.84-32-3.21-13.85-3.31-28.06-1.62-42.06C33,164.13,38.25,155.06,49.07,151a126.33,126.33,0,0,1,20.48-6c7.09-1.4,13.42,1.24,18.43,6.48,1.49,1.56,2.66,1.82,4.64,1,12.67-5.07,25.41-10,38.11-15,6.32-2.5,10-7.37,11.73-13.76,3.83-13.75,9-27,16.76-39a72.15,72.15,0,0,1,11.25-13.86c11-10.13,24.48-16.26,38.39-21.27Q237.33,39.4,266,29.8c19-6.37,38-13,57.25-18.35A420.45,420.45,0,0,1,371.56,1.14a86.78,86.78,0,0,1,28.72.11c11.47,2.14,21.35,8.8,28.56,18.26a143.29,143.29,0,0,1,23.42,46.32c6.27,21,5.75,42.29.5,63.37-3.43,13.76-8.34,27.1-20.78,35.66a108.72,108.72,0,0,1-17.52,10.23c-22.56,10-45,20.26-68.07,29-30.22,11.5-61.55,19.64-93.15,26.3-13.57,2.86-27.7,3.05-41.57,4.45Z"/><path class="cls-2" d="M55.06,227.85s18-31.21,61.72-42,64.12-16.36,78.87-39.63c62.13-19,97.52-31.94,97.52-31.94l64.24-14.75c10.76-6.64,61.67,17.41,71,21,8,3.51,10.18,25.85,5.23,34S384.79,193,318,210s-117.18,26.55-133.56,17.66C162,215.5,152,218.44,138.62,213.19s-39.17,13-39.17,13S75.69,234.55,55.06,227.85Z"/><path d="M0,264c2.49-5.83,4.66-11.81,7.54-17.43,4.11-8.05,12.11-11.19,20-14.29-2.29,1.56-4.54,3.19-6.88,4.68C10.85,243.25,7.24,253,5.42,263.79c-1,6,2.63,9.61,7.15,12.46,9.49,6,20.09,7.49,31.11,8.34,19.3,1.51,36.83-3.45,54-11.69a103.38,103.38,0,0,1,45.22-10.47A32.7,32.7,0,0,1,162,268.3c13.55,9.35,27.77,17.5,43.93,21.4,15.2,3.67,30.53,5.05,44.67-3.58,5.63-3.43,10.43-8.21,15.6-12.4,12.81-10.39,24.47-22.26,39-30.51a150.15,150.15,0,0,1,52.73-17.75c15.66-2.32,31.54-4,46.8-8a129.78,129.78,0,0,0,53-27.47,26.09,26.09,0,0,0,9.52-19.76,14.81,14.81,0,0,0-4.73-11.66,64.6,64.6,0,0,1-4.95-5c14.89,6.66,16.06,20.53,9.8,32.23-4.73,8.82-12.44,15.18-21.11,20.26-17.57,10.29-36,18.27-56.3,21.41-11.75,1.82-23.57,3.14-35.34,4.84-27.63,4-51.13,16.33-71.46,35.24-7.4,6.89-15.22,13.36-23.06,19.75A49.42,49.42,0,0,1,236.18,298a5.43,5.43,0,0,0-1.32.66h-15.4c-2.51-.36-5-.66-7.53-1.1-19.16-3.37-36.1-11.94-51.92-22.82a32.23,32.23,0,0,0-21.69-5.85c-13.63,1.1-27,3.85-39.08,10.21C77,290.83,53.51,293.5,29.16,289.31,17,287.21,5.79,282.53,0,270.18Z"/><path d="M172.65,224.84c-12.68-7-26.64-10.3-41.11-8.37-8.92,1.19-17.61,4.17-26.36,6.5a3.62,3.62,0,0,0-1.94,2.39c-1.65,7.24-4.4,13.86-11.37,17.42-8,4.1-16.37,7.13-25.71,6.15-19-2-28.58-13.58-32.84-32-3.21-13.85-3.31-28.06-1.62-42.06C33,164.13,38.25,155.06,49.07,151a126.33,126.33,0,0,1,20.48-6c7.09-1.4,13.42,1.24,18.43,6.48,1.49,1.56,2.66,1.82,4.64,1,12.67-5.07,25.41-10,38.11-15,6.32-2.5,10-7.37,11.73-13.76,3.83-13.75,9-27,16.76-39a72.15,72.15,0,0,1,11.25-13.86c11-10.13,24.48-16.26,38.39-21.27Q237.33,39.4,266,29.8c19-6.37,38-13,57.25-18.35A420.45,420.45,0,0,1,371.56,1.14a86.78,86.78,0,0,1,28.72.11c11.47,2.14,21.35,8.8,28.56,18.26a143.29,143.29,0,0,1,23.42,46.32c6.27,21,5.75,42.29.5,63.37-3.43,13.76-8.34,27.1-20.78,35.66a108.72,108.72,0,0,1-17.52,10.23c-22.56,10-45,20.26-68.07,29-30.22,11.5-61.55,19.64-93.15,26.3-13.57,2.86-27.7,3.05-41.57,4.45C211.67,234.46,195.51,237.5,172.65,224.84ZM105,218c8.55-2.24,16.7-5.26,25.1-6.32a88.49,88.49,0,0,1,25.9.15c7.75,1.35,15,5.45,22.49,8.36,5.81,2.26,11.48,6,17.45,6.53,17,1.58,34.25,1.46,51-1.88,21-4.2,41.62-10.18,62.38-15.52,36.83-9.5,71-25.68,105.34-41.57,12.61-5.84,23-14.17,27.68-27.8a164.42,164.42,0,0,0,6.26-24.42c3.34-18.91,1.79-37.72-5.28-55.49C438.65,48.47,432.19,37.59,426,26.75c-4-6.89-10.56-11.36-17.4-15.34-11.19-6.5-23.43-5.2-35.26-3.94a255.5,255.5,0,0,0-36.09,6.89c-15.95,4.07-31.75,8.79-47.44,13.8C268.85,34.85,248,41.78,227.35,49.21a304.71,304.71,0,0,0-34.91,14.84c-12.62,6.43-23.63,14.75-30.2,28.36-4.68,9.71-9.1,19.37-12.12,29.71-2.58,8.79-6.14,16.92-15.59,20.53-6.56,2.51-13.08,5.12-19.69,7.46-7.18,2.53-14.46,4.81-21.85,7.26C102.4,176.69,106.68,196.54,105,218Zm-16.62-6.28c-.71-5.44-1.18-10.92-2.18-16.3-2-10.85-4.49-21.79-11.51-30.55-8.33-10.38-17.29-12.71-27.87-6.41-7.5,4.45-11.15,11.8-12,20-.71,7-.05,14.28.67,21.37,1.2,11.66,3.85,23,11.28,32.5s23.34,16,35,1.07C86.72,227.1,88.69,219.78,88.36,211.71ZM64.11,149.42c1.09.59,1.9,1.05,2.75,1.47a36.08,36.08,0,0,1,17.65,18.47,114.89,114.89,0,0,1,9.11,34.3c.9,9,1.58,18.27-2.84,26.75-2,3.91-4.7,7.52-7.22,11.49,5.59-2.25,10.36-5.32,12.17-11.08a72.46,72.46,0,0,0,3.47-16c1.38-18.12-3-35.34-10-51.85C84.41,151.52,74.86,146.66,64.11,149.42Z"/><path d="M61.65,263c-.45,2.45-.47,3.92-1,5.18-1.15,2.7-2.82,4.9-6.3,4.38s-4.47-3.16-4.18-5.87a132,132,0,0,1,2.66-14.15c.18-.8,1.25-1.4,1.91-2.09.7.66,1.65,1.2,2,2C58.61,256.21,60.27,260,61.65,263Zm-6.5-7.91-1.44.18a78.83,78.83,0,0,0-1.15,10c0,1.38,1.51,2.76,2.33,4.14,1-1.45,2.79-3,2.66-4.33C57.23,261.72,56,258.44,55.15,255.12Z"/><path d="M170.61,186.32c7.28,0,14.61-.51,21.83.17,5.25.49,10.31,2.77,15.53,3.85a105.41,105.41,0,0,0,14.35,2c17,1.11,33.89-.79,50.37-4.42,20.53-4.52,40.77-10.36,61.06-16,12.28-3.39,24.86-6.35,36.5-11.36,19-8.18,38.14-16.16,55.72-27.26.22-.14.45-.26.66-.39,6.72-4.22,7.05-6.58,1.78-12.47,6.15,1.32,7,9.28,1.89,12.93a275.41,275.41,0,0,1-37.47,22.33c-21.72,10.81-44.83,17-67.91,23.51-15.23,4.3-30.33,9.3-45.8,12.47-19.8,4-39.93,6.82-60.26,5.1A47.3,47.3,0,0,1,203,192.77c-6.87-3.21-14-3.69-21.22-4.23-3.77-.29-7.5-1-11.25-1.53Z"/><path d="M175.13,165.92c7.07-3.25,11.7-8.93,16.17-15,5.62-7.63,14.12-11.66,22.64-14.49,28.1-9.32,56.31-18.34,84.74-26.58,17.25-5,35-8.37,52.51-12.44,6.41-1.49,12.7-.81,18.94,1a34.92,34.92,0,0,1,5.24,1.53,22.32,22.32,0,0,1-4.84,0c-9.67-2.25-18.76.42-27.91,2.92-14.16,3.86-28.42,7.37-42.52,11.44-16.29,4.71-32.5,9.73-48.68,14.86-13.74,4.35-27.44,8.84-41,13.64a45.12,45.12,0,0,0-21.33,15C185.6,162.32,180.5,164.43,175.13,165.92Z"/><path d="M441,114.23c-5.82-35.53-11.85-70.88-37.2-99.32,4.45,4.42,9.34,8.5,13.28,13.34,11.79,14.44,17.52,31.53,21.12,49.58,2.26,11.35,4.27,22.63,3,34.25C441.16,112.8,441.09,113.52,441,114.23Z"/><path d="M378.69,22.79c-18,13.66-30.17,31.82-33.37,55.16C340.83,57.09,362.59,26.65,378.69,22.79Z"/><path d="M160.46,175c-13.48,7.67-28.68,8.92-43.38,12l-.3-1.17Z"/><path d="M113.15,199.86c11.56-3.22,22.22-9.74,34.75-9.44C136.23,193.25,125.42,199.21,113.15,199.86Z"/><path d="M80.55,209.09c-.74,4.25-1.12,8.6-2.29,12.72-1.86,6.52-6,10.77-13.11,11.81-7.22,1.07-13.09-1.06-17.61-6.81-6.39-8.11-8.12-17.79-8.82-27.65a65.08,65.08,0,0,1,.61-15.28c2.13-12.72,14.83-17.93,25.1-14,3.64,1.38,6.65,5.92,8.68,9.71C79.15,190.8,79.9,195.34,80.55,209.09ZM42,194.69c.2,9.89,2.63,19.77,9.39,28.19a12.44,12.44,0,0,0,13,4.65c5-1,7.31-4.34,8.22-9,2.89-14.65.92-28.41-7.77-40.86-.77-1.1-1.93-2.41-3.12-2.68-9.41-2.13-17.46,1.58-19.25,12.08A68,68,0,0,0,42,194.69Z"/><path class="cls-1" d="M510.39,257l20-158.2h-2.3s0,0,0,0a2.67,2.67,0,0,0,0-3.55,11.89,11.89,0,0,0-2-2,32.48,32.48,0,0,0-9.27-4.3,124.45,124.45,0,0,0-25-5.07c-6.7-.77-13.44-1.33-20.18-1.6-18.21-.71-36.36-.09-54.37,3a91,91,0,0,0-19.42,5.11,19,19,0,0,0-7.06,4.32A2.94,2.94,0,0,0,390,98.2h-1.57l19.35,156.15-.9.43,3.29,18.84.24,1.93h.1l.07.4c24.72,18,76.35,12.38,93.35,1.42l3.86.07,1.61-12.74,1.33-7.48Z"/><path class="cls-3" d="M456.62,285.79c-2.71-.15-8.05-.29-13.34-.77a94.64,94.64,0,0,1-18.95-3.46,29.25,29.25,0,0,1-9.21-4.16c-2.94-2.18-3-4-.1-6.29A26.4,26.4,0,0,1,423.9,267a96.17,96.17,0,0,1,16.83-3.31,158.59,158.59,0,0,1,24.16-1,122.71,122.71,0,0,1,27.17,3.58,35.89,35.89,0,0,1,10.42,4.15,12.13,12.13,0,0,1,2.11,1.74c1.34,1.4,1.27,2.79-.1,4.19a17.48,17.48,0,0,1-6.42,3.81,75.43,75.43,0,0,1-16.63,4.08A169.08,169.08,0,0,1,456.62,285.79Z"/><path class="cls-2" d="M412.82,280.3c6.48,3.89,13.45,5.54,20.54,6.77a158.41,158.41,0,0,0,37.23,1.71,120,120,0,0,0,20.32-2.88,48.65,48.65,0,0,0,11.76-4.13,21.47,21.47,0,0,1,3-1.48,7.26,7.26,0,0,1-.54,1.69,9.87,9.87,0,0,1-4.34,3.42c-5.05,2.52-10.49,3.77-16,4.74a153.28,153.28,0,0,1-32.66,1.91,128.84,128.84,0,0,1-21.89-2.56c-4.84-1-9.66-2.27-13.93-4.92a15.53,15.53,0,0,1-3-2.71C413,281.5,413,280.83,412.82,280.3Z"/><path d="M458,248.39c3.67.11,7.34.22,11,.35,1.13,0,1.69.59,1.65,1.56s-.65,1.44-1.78,1.39a195.52,195.52,0,0,0-20.4.07,119.33,119.33,0,0,0-16.85,2.08c-3.91.79-7.8,1.73-11.29,3.81a5.11,5.11,0,0,0-.66.45c-1.65,1.36-1.65,2.25.12,3.47.8.56,1.74.91,2.56,1.44a3,3,0,0,1,1.25,1.25,1.37,1.37,0,0,1-1.78,1.69,11,11,0,0,1-5.44-3.6,4,4,0,0,1,.33-5.52,13,13,0,0,1,5-3.19,60,60,0,0,1,13.56-3.44A164.65,164.65,0,0,1,458,248.39Z"/><path d="M460.89,271.25c-4.71-.17-8.38-.3-12-.45a1.49,1.49,0,0,1-1.5-1.46,1.47,1.47,0,0,1,1.61-1.43c3,.06,6.08.17,9.13.22a151.33,151.33,0,0,0,19.39-.94,84.93,84.93,0,0,0,13.79-2.53,23.24,23.24,0,0,0,7.14-3,3.11,3.11,0,0,0,1.61-2.24,1.32,1.32,0,0,1,1.51-1.11,1.49,1.49,0,0,1,1.36,1.42,4.84,4.84,0,0,1-2,3.8,19.81,19.81,0,0,1-6.69,3.33,78.26,78.26,0,0,1-17.35,3.33C471.17,270.69,465.51,271,460.89,271.25Z"/><path d="M419.65,268.07c.88.24,1.91.53,3,.78,2,.49,4.12.93,6.17,1.45a2.12,2.12,0,0,1,1.31.77,1.72,1.72,0,0,1,0,1.55,1.85,1.85,0,0,1-1.51.61c-2.4-.46-4.78-1-7.15-1.6-.84-.21-1.66-.48-2.47-.77a1.35,1.35,0,0,1-.93-1.55A1.49,1.49,0,0,1,419.65,268.07Z"/><path d="M488.59,249.12c-.84-.16-1.93-.32-3-.59a1.31,1.31,0,0,1-1-1.51,1.29,1.29,0,0,1,1.37-1.27,20.9,20.9,0,0,1,3.59.62,1.24,1.24,0,0,1,.82,1.59C490.25,248.72,489.67,249.14,488.59,249.12Z"/><path d="M409.81,256.22a23.89,23.89,0,0,1,6.93-3.66,89.15,89.15,0,0,1,18.6-4.34,172.09,172.09,0,0,1,32.32-1.4c4.83.24,9.63.83,14.45,1.22a2.25,2.25,0,0,0,1.54-.41,1.59,1.59,0,0,0,.3-1.44,1.82,1.82,0,0,0-1.21-1c-2.81-.37-5.63-.67-8.45-.93a184.2,184.2,0,0,0-25.41-.34,142.4,142.4,0,0,0-21.29,2.56,71.89,71.89,0,0,0-13.87,4.07,22.64,22.64,0,0,0-6.13,3.64l-.7.55.64,5C407.55,258.63,408.32,257.43,409.81,256.22Z"/><path d="M495.89,247.7a21.07,21.07,0,0,0-2.61-.62,1.45,1.45,0,1,0-.67,2.83c3,.87,6,1.64,8.9,2.65a20.63,20.63,0,0,1,7.76,4.31,4.11,4.11,0,0,1,1.55,3l.68-5.36a53.5,53.5,0,0,0-6.09-3.47C502.32,249.71,499.08,248.76,495.89,247.7Z"/><path d="M408.44,266.2c1.39.77,2.64,1.48,3.91,2.17a8.87,8.87,0,0,0,1.22.54,1.49,1.49,0,0,0,2-.78,1.58,1.58,0,0,0-.92-2,48,48,0,0,1-4.64-2.65,5.67,5.67,0,0,1-2.4-2.86l.69,5.46Z"/><path d="M433.92,274.16c4,.45,8.06.94,12.1,1.27a172.66,172.66,0,0,0,24.07.19,130.83,130.83,0,0,0,26.33-3.85,43.41,43.41,0,0,0,12.4-5L510,266v0h0l.7-5.58a4.66,4.66,0,0,1-1.4,2.2,20.12,20.12,0,0,1-7,4.08,88.15,88.15,0,0,1-20.4,4.79,173.36,173.36,0,0,1-27.42,1.4,161.82,161.82,0,0,1-20.14-1.67c-1.15-.17-1.87.26-2,1.22S432.84,274,433.92,274.16Z"/><path d="M529.57,91.79a24.52,24.52,0,0,0-4.24-3,59.12,59.12,0,0,0-14.92-5.2,178,178,0,0,0-24-3.76c-9-.86-18-1.26-28.73-1.28A251.54,251.54,0,0,0,428,80.37c-4.53.58-9.08,1.17-13.58,1.94a91.44,91.44,0,0,0-16.1,4.2,30,30,0,0,0-8.76,4.64c-2.51,2-3.78,4.53-3.06,7.87.4,1.88.56,3.82.8,5.74.65,5.17,1.27,10.35,1.93,15.53.63,4.91,1.29,9.82,1.91,14.73.86,6.86,1.68,13.73,2.54,20.6.75,6,1.53,11.91,2.29,17.87l2.42,19.25q1.17,9.28,2.37,18.57c.65,5.18,1.28,10.37,1.93,15.55.84,6.66,1.7,13.32,2.54,20q1,7.72,1.93,15.45c.77,6,1.58,12.1,2.28,18.16a7.55,7.55,0,0,0,2.56,5.13,20.8,20.8,0,0,0,2.86,2.1c4.55,2.71,9.62,4,14.71,5.1a128.38,128.38,0,0,0,22.1,2.65c13.34.54,26.6-.13,39.64-3.23,4.78-1.14,9.51-2.54,13.64-5.38,2-1.37,3.61-3.05,3.94-5.55.81-6,1.52-12,2.27-18.06q1.26-10.15,2.53-20.29,1.38-10.86,2.76-21.7c.66-5.21,1.29-10.43,1.94-15.64.38-3,.75-5.9,1.13-8.85l2.82-22.5c.16-1.32.33-2.65.5-4,.85-6.73,1.73-13.45,2.59-20.17.66-5.18,1.28-10.37,1.94-15.55.76-6,1.56-12,2.33-18,.74-5.79,1.35-11.59,2.24-17.35C532.4,96.18,531.8,93.72,529.57,91.79ZM505.09,282a9.87,9.87,0,0,1-4.34,3.42c-5.05,2.52-10.49,3.77-16,4.74a153.28,153.28,0,0,1-32.66,1.91,128.84,128.84,0,0,1-21.89-2.56c-4.84-1-9.66-2.27-13.93-4.92a15.53,15.53,0,0,1-3-2.71c-.33-.36-.32-1-.47-1.56,6.48,3.89,13.45,5.54,20.54,6.77a158.41,158.41,0,0,0,37.23,1.71,120,120,0,0,0,20.32-2.88,48.65,48.65,0,0,0,11.76-4.13,21.47,21.47,0,0,1,3-1.48A7.26,7.26,0,0,1,505.09,282ZM415,271.11A26.4,26.4,0,0,1,423.9,267a96.17,96.17,0,0,1,16.83-3.31,158.59,158.59,0,0,1,24.16-1,122.71,122.71,0,0,1,27.17,3.58,35.89,35.89,0,0,1,10.42,4.15,12.13,12.13,0,0,1,2.11,1.74c1.34,1.4,1.27,2.79-.1,4.19a17.48,17.48,0,0,1-6.42,3.81,75.43,75.43,0,0,1-16.63,4.08,169.08,169.08,0,0,1-24.82,1.54c-2.71-.15-8.05-.29-13.34-.77a94.64,94.64,0,0,1-18.95-3.46,29.25,29.25,0,0,1-9.21-4.16C412.18,275.22,412.15,273.36,415,271.11Zm104.12-98.05-2.76,21.76c-3.16,25-6.29,49.83-9.45,74.85a21.42,21.42,0,0,0-8.43-4.88,104.74,104.74,0,0,0-11.27-3.05,119.12,119.12,0,0,0-22.84-2.35c-5.46-.06-10.93,0-16.38.26a107.64,107.64,0,0,0-23.86,3.73,33.48,33.48,0,0,0-10.75,4.73c-.6.43-1.17.91-1.9,1.5-3.22-25.46-6.42-50.84-9.64-76.3l-2.63-20.83q-4.37-34.5-8.68-68.77c2,1,3.94,2.07,5.95,2.92a69.51,69.51,0,0,0,15.19,4.4c6.24,1.1,12.5,2.22,18.8,2.8,8,.75,16,1.24,24,1.33,8.61.11,17.24-.19,25.84-.66A174.78,174.78,0,0,0,508,110.8a73,73,0,0,0,15.87-5c1.34-.63,2.6-1.41,4-2.2Q523.51,138.53,519.14,173.06Zm8.94-74.33a14.55,14.55,0,0,1-5.75,4.07,71.09,71.09,0,0,1-15.1,4.7,188.26,188.26,0,0,1-29.83,3.81c-6.13.32-12.27.51-19.8.82-7.6-.43-16.59-.76-25.55-1.49a149.15,149.15,0,0,1-25.25-4.17c-4.53-1.18-9-2.5-13.06-4.94a16.83,16.83,0,0,1-2.95-2.3c-1.49-1.47-1.45-3.06,0-4.58a19,19,0,0,1,7.06-4.32,91,91,0,0,1,19.42-5.11c18-3.07,36.16-3.69,54.37-3,6.74.27,13.48.83,20.18,1.6a124.45,124.45,0,0,1,25,5.07,32.48,32.48,0,0,1,9.27,4.3,11.89,11.89,0,0,1,2,2A2.67,2.67,0,0,1,528.08,98.73Z"/><path class="cls-3" d="M514.37,155.63l2.93-21.13a23.35,23.35,0,0,1-10.76,3.29l-2.11,20.05C507.72,158,511.71,156.43,514.37,155.63Z"/><path class="cls-3" d="M503.43,167l-7.37,71.92c4.27,2.28,7.64-2.15,7.64-2.15l9.46-72.48C510.82,165.14,507.33,167.21,503.43,167Z"/></g></g></svg>