<svg xmlns="http://www.w3.org/2000/svg" viewBox="0 0 117.94 135.46"><defs><style>.cls-1{fill:#fff;}</style></defs><title>qrRecurso 3</title><g id="Capa_2" data-name="Capa 2"><g id="Capa_1-2" data-name="Capa 1"><path d="M52.42,63.48V11.88C52.42,4.51,56.94,0,64.33,0h41.9c7.11,0,11.71,4.59,11.71,11.68v90.23c0,7.1-4.6,11.68-11.71,11.68-10.92,0-21.84,0-32.76,0a3.42,3.42,0,0,0-2.12.84q-8.62,8-17.14,16a17.26,17.26,0,0,1-12.45,5c-12.87-.05-25.75,0-38.62,0-2.51,0-3.14-.63-3.14-3.14V103.63c0-2.34.36-2.79,2.71-3.28,1.91-.4,3.82-.8,5.74-1.16a8.19,8.19,0,0,0,5.42-3.59c3.22-4.62,6.47-9.23,9.69-13.87a25.79,25.79,0,0,1,7.39-7c3.89-2.52,7.68-5.2,11.42-7.94C45.33,64.67,48.31,62.73,52.42,63.48ZM84.64,93.93c1.41,4.79-.16,8.49-3.73,11.53-1.07.92-2.07,1.92-3.09,2.89-.23.22-.42.49-.75.88H106c5.12,0,7.61-2.5,7.61-7.63V12c0-.46,0-.91,0-1.37a6.47,6.47,0,0,0-5.78-6.24c-1.85-.16-3.72,0-5.6,0-.31,1.21-.59,2.35-.89,3.49a6.53,6.53,0,0,1-6.62,5.2q-9.49,0-19,0a6.51,6.51,0,0,1-6.62-5.2c-.3-1.17-.6-2.34-.91-3.53H63.81c-4.28,0-7,2.73-7,7q0,43.41,0,86.82c0,.39.05.77.09,1.38,3.77-3.2,7.38-6.24,11-9.3a1.15,1.15,0,0,0,.17-.82c-.08-1.5-.31-3-.28-4.47A6.4,6.4,0,0,1,74,78.67c7.41-.07,14.83,0,22.24,0a5.68,5.68,0,0,1,5.15,2.84,11.28,11.28,0,0,1,1.2,4.23c.59,5.52-3.06,8.59-8.09,8.25C91.28,93.75,88,93.93,84.64,93.93ZM52.41,67.85a7.63,7.63,0,0,0-6.08,1.55c-4.27,3.1-8.57,6.16-13,9.06a22,22,0,0,0-6.23,5.81c-3,4.34-6.14,8.59-9,13a13.89,13.89,0,0,1-9.95,6.47c-.81.12-1.6.41-2.41.46-1.09.08-1.39.53-1.38,1.62,0,8,0,15.93,0,23.89v1.37H5.92c12,0,23.93,0,35.9,0a12.82,12.82,0,0,0,9.25-3.65c6.74-6.37,13.54-12.7,20.31-19,2.56-2.39,5.13-4.77,7.65-7.2a5.44,5.44,0,0,0-2.78-9.36,6.39,6.39,0,0,0-5.52,1.71C64.37,99,58,104.37,51.57,109.78A6,6,0,0,1,41.49,105c0-5,0-10.1,0-15.16a5.93,5.93,0,0,1,3.2-5.59c2.32-1.34,4.61-2.75,6.89-4.16.34-.21.8-.61.81-.93C52.43,75.42,52.41,71.66,52.41,67.85ZM72.1,87.64a4.59,4.59,0,0,0,.65,0,10.26,10.26,0,0,1,8.31,1.6,2.15,2.15,0,0,0,1.14.31q6.83,0,13.64,0a2.21,2.21,0,0,0,2.44-2.46c0-.64,0-1.28,0-1.91A2.11,2.11,0,0,0,96.09,83q-10.91,0-21.82,0a2,2,0,0,0-2.14,1.88A20.61,20.61,0,0,0,72.1,87.64ZM52.42,84.7c-2.14,1.3-4.09,2.43-6,3.66a1.75,1.75,0,0,0-.55,1.28c0,5.19,0,10.37,0,15.56a2.11,2.11,0,0,0,.91,1.61,2.21,2.21,0,0,0,1.82-.33,21.61,21.61,0,0,0,3-2.54,2.58,2.58,0,0,0,.73-1.58c0-4.55,0-9.1,0-13.65ZM97.58,4.44H72.78c.06.39.1.71.17,1,.71,3.06,1,3.28,4.11,3.28H93.15c3.31,0,3.57-.21,4.29-3.4C97.5,5.08,97.53,4.81,97.58,4.44Z"/><path class="cls-1" d="M84.64,93.93c3.36,0,6.64-.18,9.89,0,5,.34,8.68-2.73,8.09-8.25a11.28,11.28,0,0,0-1.2-4.23,5.68,5.68,0,0,0-5.15-2.84c-7.41,0-14.83-.06-22.24,0A6.4,6.4,0,0,0,67.74,85c0,1.48.2,3,.28,4.47a1.15,1.15,0,0,1-.17.82c-3.59,3.06-7.2,6.1-11,9.3,0-.61-.09-1-.09-1.38q0-43.41,0-86.82c0-4.26,2.74-7,7-7h4.35c.31,1.19.61,2.36.91,3.53a6.51,6.51,0,0,0,6.62,5.2q9.5,0,19,0a6.53,6.53,0,0,0,6.62-5.2c.3-1.14.58-2.28.89-3.49,1.88,0,3.75-.14,5.6,0a6.47,6.47,0,0,1,5.78,6.24c0,.46,0,.91,0,1.37V101.6c0,5.13-2.49,7.63-7.61,7.63H77.07c.33-.39.52-.66.75-.88,1-1,2-2,3.09-2.89C84.48,102.42,86.05,98.72,84.64,93.93Zm-3.83-54.6c0-1.41,0-2.82,0-4.23a2.15,2.15,0,0,0-2.3-2.32c-2.82,0-5.64,0-8.47,0a2.13,2.13,0,0,0-2.31,2.3q-.06,4.23,0,8.46A2.13,2.13,0,0,0,70,45.86q4.23.06,8.46,0a2.15,2.15,0,0,0,2.32-2.3C80.84,42.15,80.81,40.74,80.81,39.33Zm15.28,6.54c1.41,0,2.83,0,4.23,0a2.14,2.14,0,0,0,2.32-2.3c0-2.82,0-5.65,0-8.47a2.14,2.14,0,0,0-2.3-2.31q-4.25,0-8.47,0a2.13,2.13,0,0,0-2.31,2.3c0,2.82,0,5.65,0,8.47a2.14,2.14,0,0,0,2.3,2.31C93.27,45.9,94.68,45.87,96.09,45.87Zm-6.46,2.25v4.25l2.18.14V63.27h4.33V59h6.43V54.57H96.16V52.42h6.4v-4.3ZM72.05,26.45c-.08-.07-.14-.19-.21-.19-2.9,0-5.81-.07-8.71,0a1.9,1.9,0,0,0-1.93,1.93c-.08,2.94,0,5.88,0,8.87h4.39V30.52h6.49Zm32.83,4.11V37h4.32c0-2.92,0-5.73,0-8.54a2.14,2.14,0,0,0-2.35-2.26c-1.58,0-3.17,0-4.76,0H98.36v4.35ZM76.51,63.34c3,0,5.89,0,8.78,0a1.9,1.9,0,0,0,2-1.85c.1-3,0-6,0-8.95h-4.4V59H76.51Zm-11-4.25H61.16c0,2.92,0,5.73,0,8.54a2.13,2.13,0,0,0,2.34,2.26c1.5,0,3,0,4.5,0h4V65.52H65.53Zm32.81,10.8c3,0,5.91,0,8.81,0a1.89,1.89,0,0,0,2-1.86c.1-3,0-6,0-8.93h-4.42v6.51H98.34ZM72.1,52.38h4.26V48.07c-2.26,0-4.43,0-6.59,0a1.9,1.9,0,0,0-2,1.86c-.1,3,0,6,0,8.94H72.1ZM87.32,41.62H83.07V48h4.25Zm0-8.78H83.08V37H87.3Z"/><path class="cls-1" d="M52.41,67.85c0,3.81,0,7.57,0,11.34,0,.32-.47.72-.81.93-2.28,1.41-4.57,2.82-6.89,4.16a5.93,5.93,0,0,0-3.2,5.59c.05,5.06,0,10.11,0,15.16a6,6,0,0,0,10.08,4.75C58,104.37,64.37,99,70.73,93.54a6.39,6.39,0,0,1,5.52-1.71A5.44,5.44,0,0,1,79,101.19c-2.52,2.43-5.09,4.81-7.65,7.2-6.77,6.35-13.57,12.68-20.31,19a12.82,12.82,0,0,1-9.25,3.65c-12,0-23.93,0-35.9,0H4.37V129.7c0-8,0-15.92,0-23.89,0-1.09.29-1.54,1.38-1.62.81,0,1.6-.34,2.41-.46a13.89,13.89,0,0,0,9.95-6.47c2.91-4.4,6-8.65,9.05-13a22,22,0,0,1,6.23-5.81c4.4-2.9,8.7-6,13-9.06A7.63,7.63,0,0,1,52.41,67.85Z"/><path class="cls-1" d="M72.1,87.64a20.61,20.61,0,0,1,0-2.73A2,2,0,0,1,74.27,83q10.92,0,21.82,0a2.11,2.11,0,0,1,2.18,2.16c0,.63,0,1.27,0,1.91a2.21,2.21,0,0,1-2.44,2.46q-6.82,0-13.64,0a2.15,2.15,0,0,1-1.14-.31,10.26,10.26,0,0,0-8.31-1.6A4.59,4.59,0,0,1,72.1,87.64Z"/><path class="cls-1" d="M97.58,4.44c0,.37-.08.64-.14.9-.72,3.19-1,3.4-4.29,3.4H77.06c-3.12,0-3.4-.22-4.11-3.28-.07-.31-.11-.63-.17-1Z"/><path d="M80.81,39.33c0,1.41,0,2.82,0,4.23a2.15,2.15,0,0,1-2.32,2.3q-4.23.06-8.46,0a2.13,2.13,0,0,1-2.3-2.32q-.06-4.23,0-8.46A2.13,2.13,0,0,1,70,32.78c2.83,0,5.65,0,8.47,0a2.15,2.15,0,0,1,2.3,2.32C80.84,36.51,80.81,37.92,80.81,39.33Zm-8.65-2.16v4.24h4.17V37.17Z"/><path d="M96.09,45.87c-1.41,0-2.82,0-4.23,0a2.14,2.14,0,0,1-2.3-2.31c0-2.82,0-5.65,0-8.47a2.13,2.13,0,0,1,2.31-2.3q4.23,0,8.47,0a2.14,2.14,0,0,1,2.3,2.31c0,2.82,0,5.65,0,8.47a2.14,2.14,0,0,1-2.32,2.3C98.92,45.9,97.5,45.87,96.09,45.87Zm2.17-8.64H94v4.16h4.24Z"/><path d="M89.63,48.12h12.93v4.3h-6.4v2.15h6.41V59H96.14v4.32H91.81V52.51l-2.18-.14Z"/><path d="M72.05,26.45v4.07H65.56v6.54H61.17c0-3-.05-5.93,0-8.87a1.9,1.9,0,0,1,1.93-1.93c2.9-.07,5.81,0,8.71,0C71.91,26.26,72,26.38,72.05,26.45Z"/><path d="M104.88,30.56H98.36V26.21h3.72c1.59,0,3.18,0,4.76,0a2.14,2.14,0,0,1,2.35,2.26c0,2.81,0,5.62,0,8.54h-4.32Z"/><path d="M76.51,63.34V59h6.42v-6.5h4.4c0,3,.07,6,0,8.95a1.9,1.9,0,0,1-2,1.85C82.4,63.38,79.5,63.34,76.51,63.34Z"/><path d="M65.53,59.09v6.43H72V69.9H68c-1.5,0-3,0-4.5,0a2.13,2.13,0,0,1-2.34-2.26c0-2.81,0-5.62,0-8.54Z"/><path d="M98.34,69.89v-4.3h6.42V59.08h4.42c0,3,.06,6,0,8.93a1.89,1.89,0,0,1-2,1.86C104.25,69.93,101.35,69.89,98.34,69.89Z"/><path d="M72.1,52.38v6.51H67.73c0-3-.06-6,0-8.94a1.9,1.9,0,0,1,2-1.86c2.16-.06,4.33,0,6.59,0v4.31Z"/><path d="M87.32,41.62V48H83.07V41.62Z"/><path d="M87.3,32.84V37H83.08v-4.2Z"/><path class="cls-1" d="M72.16,37.17h4.17v4.24H72.16Z"/><path class="cls-1" d="M98.26,37.23v4.16H94V37.23Z"/></g></g></svg>