<svg xmlns="http://www.w3.org/2000/svg" viewBox="0 0 116.97 138.5"><defs><style>.cls-1{fill:#fff;}</style></defs><title>transferenciaRecurso 4</title><g id="Capa_2" data-name="Capa 2"><g id="Capa_1-2" data-name="Capa 1"><path d="M13.75,110.93c.12-1.79.27-3.41.34-5q.67-14.58,1.31-29.17c.08-1.89,0-1.89-1.54-1.89-.48,0-1,0-1.44,0-1.61-.11-2.6-1.28-2.64-3.23q-.06-3.61,0-7.23c0-1-.28-1.37-1.12-1.34-1.88,0-3.76,0-5.64,0C1,63,0,61.87,0,59.4s0-5.12,0-7.67c0-3,.35-3.6,2.66-4.79l20.18-10.4,16.86-8.73c.36-.18.71-.41,1.07-.62C39,17.32,41,9.12,48.13,3.56c6.14-4.8,12.71-4.74,18.77.14,6.92,5.58,9,13.72,7.14,23.57L81.28,31Q97,39.15,112.82,47.28a3.69,3.69,0,0,1,2,3.69c0,2.84,0,5.69-.07,8.53,0,2.5-.88,3.45-3,3.45-1.88,0-3.76,0-5.63-.08-1,0-1.26.39-1.23,1.51,0,2.27,0,4.53,0,6.8,0,2.57-.89,3.62-3,3.65-2.58,0-2.62,0-2.48,3.16.46,10.45,1,20.89,1.43,31.33,0,1.23.37,1.77,1.43,1.61a10.47,10.47,0,0,1,1.68,0c2,0,3,1.21,3,3.67,0,2.22,0,4.44,0,6.65,0,1.15.31,1.53,1.25,1.47,1.23-.08,2.48,0,3.72,0,1.83.05,2.81,1.24,2.82,3.43q0,4.35,0,8.68c0,2.42-1,3.65-3,3.66-4.76,0-9.53,0-14.29,0l-81,0-13.21,0c-2.38,0-3.26-1.07-3.26-3.93s0-5.49,0-8.24c0-2.46,1-3.6,3.05-3.62,1.2,0,2.4,0,3.6,0,.92.06,1.18-.4,1.15-1.44,0-2.16,0-4.34,0-6.51,0-2.73,1-3.82,3.25-3.84C11.92,110.92,12.79,110.93,13.75,110.93Zm2.41-64,.09.21H98.94c-.58-.36-.85-.55-1.14-.7C89.6,42.21,81.39,38,73.22,33.72c-1.21-.64-1.81-.48-2.67.75-6.93,10-20,9.74-26.62-.5-.58-.88-1-.9-1.81-.51q-9.42,4.9-18.85,9.76ZM43.05,63.07c-1.38,0-2.6,0-3.83,0-.21,0-.57.53-.59.83-.08,2-.18,3.93-.09,5.89.18,3.81-.68,5-3.83,5a1.91,1.91,0,0,1-.48,0c-1.1-.23-1.42.36-1.35,1.61.2,3.51.34,7,.5,10.53.34,7.51.69,15,1,22.52,0,1,.28,1.53,1.26,1.51,3.44-.07,6.88,0,10.32,0,.79,0,1.17-.23,1.17-1.27,0-1.34.15-2.69.21-4Q48,91.49,48.68,77.35c0-.79,0-1.59,0-2.55a15.44,15.44,0,0,0-2.17,0c-2.24.33-3.61-1.19-3.49-4.27C43.12,68.1,43.05,65.65,43.05,63.07ZM66.21,74.82c.12,2.24.23,4.24.32,6.24q.64,14.2,1.26,28.42c0,1.07.33,1.5,1.28,1.48,3.24-.07,6.48,0,9.72,0,1.61,0,1.6,0,1.69-2q.57-12.56,1.14-25.1c.13-2.92.24-5.84.37-9-.9,0-1.64,0-2.39,0-2.36,0-3.27-1-3.32-3.9,0-2.12-.06-4.24,0-6.36,0-1.09-.24-1.63-1.21-1.54a14.16,14.16,0,0,1-2.16,0c-.83-.06-1.13.34-1.11,1.34,0,2.22,0,4.43,0,6.65,0,2.64-.93,3.75-3.14,3.81C67.91,74.84,67.16,74.82,66.21,74.82ZM57.43,122.7H98.49c3.39,0,3.39,0,3.24-4.1,0-.14,0-.34,0-.42-.26-.33-.51-.78-.83-.88a5.34,5.34,0,0,0-1.55,0H15.9c-2.75,0-2.75,0-2.76,3.37,0,2.07,0,2.07,1.68,2.07Zm0-87.24c6.69,0,12.08-6.36,12.11-14.44,0-7.87-5.34-14.49-11.81-14.56-6.78-.08-12.21,6.3-12.25,14.41S50.63,35.4,57.38,35.46Zm52.11,18.15h-1.4q-29.18,0-58.34-.06-17.18,0-34.34,0c-3,0-6,0-9,0-.77,0-1.18.17-1.17,1.26,0,1.86,0,1.87,1.62,1.86H108.05c.47,0,.93-.06,1.44-.1ZM95.62,110.92c0-1,0-1.73,0-2.45q-.39-8.67-.79-17.33c-.23-4.91-.47-9.81-.66-14.72,0-1.13-.32-1.66-1.34-1.6a39.23,39.23,0,0,1-4.2,0c-1,0-1.36.32-1.41,1.53-.45,10.54-1,21.08-1.42,31.62-.13,3-.09,3,2.41,3Zm-66.45,0c-.51-12.15-1-24-1.5-35.88a2.61,2.61,0,0,0-.56-.18l-3.72,0c-2.57,0-2.54,0-2.68,3.09-.28,6.11-.6,12.22-.89,18.33-.21,4.47-.43,9-.59,13.43,0,.4.38,1.18.6,1.19C22.86,110.94,25.89,110.91,29.17,110.91Zm33.2-.09c0-.83,0-1.54,0-2.25-.21-4.48-.44-8.95-.65-13.42-.3-6.35-.6-12.69-.86-19,0-1-.34-1.34-1.16-1.3-1.47.06-3,.06-4.44,0-.83,0-1.23.23-1.26,1.34-.11,3.27-.31,6.54-.47,9.8-.3,6.25-.62,12.5-.88,18.75-.08,2,0,4,0,6.12Zm47,18.28h-57q-22.87,0-45.76,0c-1,0-1.39.26-1.4,1.59,0,1.49.63,1.46,1.49,1.46H107.6c2.07,0,2.07,0,1.9-2.57A2.32,2.32,0,0,0,109.41,129.1ZM48.31,68.33H66.54c0-1.4,0-2.69,0-4,0-1-.29-1.36-1.11-1.34-1.92,0-3.84,0-5.76,0-3.4,0-6.81,0-10.21,0-.84,0-1.26.25-1.19,1.38S48.31,66.9,48.31,68.33Zm-24.15.11h6c3.09,0,3,0,3.12-3.66,0-1.37-.26-1.84-1.45-1.82-4.84.08-9.69,0-14.53,0-2.69,0-2.17-.16-2.23,2.73,0,.43,0,.87,0,1.3-.1,1.07.27,1.44,1.16,1.42C18.88,68.41,21.52,68.44,24.16,68.44ZM90.64,63H84.76c-3.2,0-3.16,0-3.21,3.87,0,1.19.27,1.58,1.28,1.57,4.59,0,9.19,0,13.79,0,3.18,0,3.14,0,3.16-3.78,0-1.24-.26-1.7-1.34-1.67C95.84,63.09,93.24,63,90.64,63Z"/><path d="M117,8c-4.26,2.47-8.28,4.8-12.55,7.26a32.85,32.85,0,0,1,0-3.47c.12-1.18-.35-1.4-1.43-1.39-6.24,0-12.49,0-18.73,0A8.28,8.28,0,0,1,83,10.35a2.3,2.3,0,0,1-2-2.47A2.33,2.33,0,0,1,83.1,5.63c.59,0,1.18,0,1.76,0h18.08c1.48,0,1.48,0,1.48-1.53l0-2.86c0-.07.07-.13.18-.34Z"/><path d="M93.37,32,80.9,24.78l12.47-7.2c0,1.15,0,2,0,2.92,0,2.1-.22,1.86,1.91,1.87q9.47,0,19,0a2.4,2.4,0,0,1,2.68,2.52,2.22,2.22,0,0,1-2,2.23,11.33,11.33,0,0,1-1.43.05H94.83c-1.46,0-1.46,0-1.46,1.5Z"/><path class="cls-1" d="M16.16,46.93l7.11-3.71q9.42-4.87,18.85-9.76c.76-.39,1.23-.37,1.81.51,6.65,10.24,19.69,10.5,26.62.5.86-1.23,1.46-1.39,2.67-.75C81.39,38,89.6,42.21,97.8,46.44c.29.15.56.34,1.14.7H16.25Z"/><path class="cls-1" d="M57.43,122.7H14.82c-1.68,0-1.68,0-1.68-2.07,0-3.37,0-3.37,2.76-3.37H99.33a5.34,5.34,0,0,1,1.55,0c.32.1.57.55.83.88.06.08,0,.28,0,.42.15,4.1.15,4.1-3.24,4.1Z"/><path class="cls-1" d="M57.37,35.46A14.33,14.33,0,0,1,43,20.87,14.49,14.49,0,1,1,57.37,35.46Z"/><path d="M62.17,22.42a4.7,4.7,0,0,1,1.55,1.47,3.52,3.52,0,0,1,.41,1.76A2.64,2.64,0,0,1,62.8,28a8.37,8.37,0,0,1-4.2,1v2H56.68V29a8.43,8.43,0,0,1-4.2-1,2.65,2.65,0,0,1-1.32-2.3v-2h2.68v2.11a1.37,1.37,0,0,0,.72,1.18,4.64,4.64,0,0,0,2.12.58V21.45l-3.45-2.09a5.22,5.22,0,0,1-1.63-1.47,3.31,3.31,0,0,1-.44-1.74,2.65,2.65,0,0,1,1.34-2.31,8.56,8.56,0,0,1,4.18-1v-2H58.6v2a7.69,7.69,0,0,1,3.92,1,2.69,2.69,0,0,1,1.22,2.29v2H61.06V16.06a1.37,1.37,0,0,0-.6-1.14,3.82,3.82,0,0,0-1.86-.6v6ZM55.3,18.34l1.38.83V14.28a4.26,4.26,0,0,0-2.14.57,1.42,1.42,0,0,0-.7,1.21,2.8,2.8,0,0,0,.25,1.23A3,3,0,0,0,55.3,18.34ZM60,23.44l-1.38-.83V27.5a4.65,4.65,0,0,0,2.13-.58,1.38,1.38,0,0,0,.71-1.18,2.67,2.67,0,0,0-.25-1.23A3.05,3.05,0,0,0,60,23.44Z"/><path class="cls-1" d="M109.49,53.61v3c-.51,0-1,.1-1.44.1H6.86c-1.65,0-1.6,0-1.62-1.86,0-1.09.4-1.26,1.17-1.26,3,0,6,0,9,0q17.17,0,34.34,0,29.18,0,58.34.06Z"/><path class="cls-1" d="M95.62,110.92H88.2c-2.5,0-2.54,0-2.41-3,.46-10.54,1-21.08,1.42-31.62.05-1.21.46-1.57,1.41-1.53a39.23,39.23,0,0,0,4.2,0c1-.06,1.3.47,1.34,1.6.19,4.91.43,9.81.66,14.72q.39,8.67.79,17.33C95.65,109.19,95.62,109.91,95.62,110.92Z"/><path class="cls-1" d="M29.17,110.91c-3.28,0-6.31,0-9.34,0-.22,0-.61-.79-.6-1.19.16-4.48.38-9,.59-13.43.29-6.11.61-12.22.89-18.33.14-3.08.11-3.09,2.68-3.09l3.72,0a2.61,2.61,0,0,1,.56.18C28.17,86.86,28.66,98.76,29.17,110.91Z"/><path class="cls-1" d="M62.37,110.82H52.64c0-2.11-.07-4.11,0-6.12.26-6.25.58-12.5.88-18.75.16-3.26.36-6.53.47-9.8,0-1.11.43-1.37,1.26-1.34,1.48.06,3,.06,4.44,0,.82,0,1.12.3,1.16,1.3.26,6.35.56,12.69.86,19,.21,4.47.44,8.94.65,13.42C62.4,109.28,62.37,110,62.37,110.82Z"/><path class="cls-1" d="M109.41,129.1a2.32,2.32,0,0,1,.09.43c.17,2.57.17,2.57-1.9,2.57H6.71c-.86,0-1.51,0-1.49-1.46,0-1.33.4-1.59,1.4-1.59q22.89.06,45.76,0h57Z"/><path class="cls-1" d="M48.31,68.33c0-1.43,0-2.69,0-3.93S48.64,63,49.48,63c3.4,0,6.81,0,10.21,0,1.92,0,3.84,0,5.76,0,.82,0,1.16.31,1.11,1.34-.06,1.28,0,2.57,0,4Z"/><path class="cls-1" d="M24.16,68.44c-2.64,0-5.28,0-7.92,0-.89,0-1.26-.35-1.16-1.42,0-.43,0-.87,0-1.3.06-2.89-.46-2.72,2.23-2.73,4.84,0,9.69,0,14.53,0,1.19,0,1.48.45,1.45,1.82-.08,3.66,0,3.66-3.12,3.66h-6Z"/><path class="cls-1" d="M90.64,63c2.6,0,5.2.06,7.8,0,1.08,0,1.35.43,1.34,1.67,0,3.78,0,3.78-3.16,3.78-4.6,0-9.2,0-13.79,0-1,0-1.29-.38-1.28-1.57,0-3.87,0-3.87,3.21-3.87Z"/></g></g></svg>