<svg xmlns="http://www.w3.org/2000/svg" viewBox="0 0 111.46 99.79"><defs><style>.cls-1{fill:#f9ed32;}</style></defs><title>warningRecurso 7</title><g id="Capa_2" data-name="Capa 2"><g id="Capa_1-2" data-name="Capa 1"><path d="M0,85.8c.66-3.47,2.65-6.31,4.36-9.28Q24.49,41.63,44.62,6.75c2-3.52,4.88-5.92,9-6.56,5.08-.78,9.34.81,12.23,5.07,2.39,3.53,4.38,7.34,6.52,11q18.54,32.1,37.08,64.2c2.39,4.13,2.83,8.34.55,12.62a11.9,11.9,0,0,1-10.29,6.62c-.47,0-.94,0-1.41,0q-42.55,0-85.1,0A12.58,12.58,0,0,1,3,95.36,12.42,12.42,0,0,1,.25,89.75,5.54,5.54,0,0,0,0,89.07Zm55.71,7.44H97.93a12.6,12.6,0,0,0,1.74-.07,5.63,5.63,0,0,0,4.67-3.43c1-2.12.51-4.07-.6-6L79.17,41.19q-9-15.58-18-31.17C60,7.93,58.31,6.57,55.81,6.55s-4.31,1.36-5.56,3.53Q38.64,30.24,27,50.38,17.38,67,7.74,83.71a6.2,6.2,0,0,0-.8,5.58c1,2.7,3,3.95,6.21,3.95Z"/><path class="cls-1" d="M55.71,93.24H13.15C9.92,93.24,8,92,6.94,89.29a6.2,6.2,0,0,1,.8-5.58Q17.38,67,27,50.38q11.64-20.14,23.26-40.3c1.25-2.17,3-3.56,5.56-3.53S60,7.93,61.18,10q9,15.6,18,31.17l24.57,42.56c1.11,1.92,1.59,3.87.6,6a5.63,5.63,0,0,1-4.67,3.43,12.6,12.6,0,0,1-1.74.07Zm3.21-28.37V31.22H52.53V64.87ZM55.69,80.16a4.34,4.34,0,0,0,4.39-4.32,4.35,4.35,0,0,0-8.7-.08A4.35,4.35,0,0,0,55.69,80.16Z"/><path d="M58.92,64.87H52.53V31.22h6.39Z"/><path d="M55.69,80.16a4.35,4.35,0,0,1-4.31-4.4,4.35,4.35,0,0,1,8.7.08A4.34,4.34,0,0,1,55.69,80.16Z"/></g></g></svg>